<?xml version="1.0" encoding="UTF-8"?> <svg xmlns="http://www.w3.org/2000/svg" width="163" height="80" viewBox="0 0 163 80" fill="none"><g clip-path="url(#clip0_311_1210)"><path d="M64.6841 35.9432H62.373L66.5797 24.0273H69.2346L73.4332 35.9432H71.1298L67.9469 26.4745H67.8511L64.6841 35.9432ZM64.7641 31.2728H71.0421V33.0003H64.7641V31.2728Z" fill="#192432"></path><path d="M81.91 24.0273H84.0615V31.8086C84.0615 32.6617 83.8617 33.4134 83.4617 34.0639C83.0617 34.709 82.4991 35.2155 81.7744 35.5834C81.0493 35.9459 80.2013 36.1272 79.2311 36.1272C78.2608 36.1272 77.4129 35.9459 76.6878 35.5834C75.9631 35.2155 75.3979 34.709 74.9924 34.0639C74.5928 33.4134 74.3926 32.6617 74.3926 31.8086V24.0273H76.5522V31.6327C76.5522 32.1339 76.6612 32.5764 76.8798 32.9603C77.0985 33.3441 77.4078 33.648 77.8078 33.872C78.2129 34.0905 78.6873 34.1998 79.2311 34.1998C79.7748 34.1998 80.2467 34.0905 80.6467 33.872C81.0463 33.648 81.3556 33.3441 81.5742 32.9603C81.7984 32.5764 81.91 32.1339 81.91 31.6327V24.0273Z" fill="#192432"></path><path d="M89.8435 35.9432H86.8206V34.0719H89.7318C90.5579 34.0719 91.2484 33.9226 91.8029 33.6241C92.3629 33.3201 92.7813 32.8643 93.0585 32.2565C93.3413 31.6487 93.4824 30.889 93.4824 29.9773C93.4824 29.0656 93.3438 28.3085 93.0666 27.7061C92.7894 27.1036 92.3761 26.6531 91.8268 26.3545C91.2779 26.0506 90.5982 25.8987 89.7879 25.8987H86.7569V24.0273H89.9158C91.0991 24.0273 92.1147 24.2646 92.9627 24.7391C93.8157 25.2136 94.4715 25.896 94.9301 26.7864C95.3883 27.6768 95.6176 28.7404 95.6176 29.9773C95.6176 31.2142 95.3883 32.2805 94.9301 33.1762C94.4715 34.0665 93.8101 34.7517 92.9468 35.2315C92.0882 35.706 91.0538 35.9432 89.8435 35.9432ZM87.9564 24.0273V35.9432H85.7969V24.0273H87.9564Z" fill="#192432"></path><path d="M99.2002 24.0273V35.9432H97.041V24.0273H99.2002Z" fill="#192432"></path><path d="M100.408 25.8347V24.0273H109.909V25.8347H106.23V35.9432H104.095V25.8347H100.408Z" fill="#192432"></path><path d="M68.3076 53.8451C67.2625 53.8451 66.3269 53.6025 65.5004 53.1174C64.6794 52.6322 64.0317 51.934 63.5573 51.022C63.088 50.1103 62.8535 49.0147 62.8535 47.7351C62.8535 46.4504 63.0905 45.3522 63.565 44.4406C64.045 43.5233 64.6952 42.8222 65.5166 42.3371C66.3427 41.852 67.2732 41.6094 68.3076 41.6094C68.963 41.6094 69.5765 41.7027 70.1468 41.8893C70.7226 42.0759 71.2343 42.3505 71.6822 42.713C72.1301 43.0703 72.4954 43.5101 72.7778 44.0324C73.0657 44.5497 73.2552 45.1387 73.3459 45.8001H71.1705C71.1119 45.4374 70.9973 45.1174 70.8266 44.8401C70.6614 44.5629 70.4535 44.3285 70.2028 44.1364C69.9577 43.9392 69.6775 43.7924 69.363 43.6966C69.0486 43.5952 68.7102 43.5447 68.3474 43.5447C67.6971 43.5447 67.1213 43.7073 66.6199 44.0324C66.119 44.3524 65.7271 44.8269 65.4443 45.4562C65.162 46.0799 65.0208 46.8397 65.0208 47.7351C65.0208 48.6416 65.162 49.4066 65.4443 50.0303C65.7322 50.6489 66.1241 51.1182 66.6199 51.4382C67.1213 51.7526 67.6942 51.9097 68.3393 51.9097C68.6965 51.9097 69.0298 51.8647 69.3391 51.774C69.6484 51.6778 69.9282 51.5366 70.1789 51.3501C70.4347 51.158 70.6452 50.9287 70.8107 50.6622C70.981 50.3905 71.1012 50.0786 71.1705 49.7266H73.3459C73.2659 50.2972 73.0897 50.8329 72.818 51.3343C72.5515 51.8301 72.1994 52.2669 71.7622 52.6455C71.3305 53.019 70.824 53.312 70.2426 53.5255C69.6616 53.7385 69.0165 53.8451 68.3076 53.8451Z" fill="#192432"></path><path d="M79.9117 53.8451C78.8721 53.8451 77.9365 53.6025 77.1048 53.1174C76.2783 52.6322 75.625 51.934 75.1455 51.022C74.6706 50.1103 74.4336 49.0147 74.4336 47.7351C74.4336 46.4504 74.6706 45.3522 75.1455 44.4406C75.625 43.5233 76.2783 42.8222 77.1048 42.3371C77.9365 41.852 78.8721 41.6094 79.9117 41.6094C80.9568 41.6094 81.8899 41.852 82.7108 42.3371C83.5318 42.8222 84.182 43.5233 84.662 44.4406C85.142 45.3522 85.3816 46.4504 85.3816 47.7351C85.3816 49.0147 85.142 50.1103 84.662 51.022C84.182 51.934 83.5318 52.6322 82.7108 53.1174C81.8899 53.6025 80.9568 53.8451 79.9117 53.8451ZM79.9117 51.9097C80.5568 51.9097 81.1271 51.7501 81.6229 51.4301C82.1187 51.1101 82.508 50.6408 82.7908 50.0226C83.0732 49.3989 83.2143 48.6365 83.2143 47.7351C83.2143 46.829 83.0732 46.0637 82.7908 45.4399C82.508 44.8162 82.1187 44.3443 81.6229 44.0247C81.1271 43.7047 80.5568 43.5447 79.9117 43.5447C79.2665 43.5447 78.6933 43.7047 78.1923 44.0247C77.6965 44.3443 77.3072 44.8162 77.0248 45.4399C76.742 46.0637 76.6009 46.829 76.6009 47.7351C76.6009 48.6365 76.742 49.3989 77.0248 50.0226C77.3072 50.6408 77.6965 51.1101 78.1923 51.4301C78.6933 51.7501 79.2665 51.9097 79.9117 51.9097Z" fill="#192432"></path><path d="M96.6092 41.7695V53.6853H94.6738L89.0678 45.568H88.9638V53.6853H86.8047V41.7695H88.7401L94.3461 49.8867H94.45V41.7695H96.6092Z" fill="#192432"></path><path d="M102.543 53.869C101.615 53.869 100.81 53.7253 100.127 53.4374C99.4448 53.1494 98.9118 52.731 98.528 52.1817C98.1439 51.6273 97.936 50.9556 97.9043 50.1663H100.031C100.063 50.5822 100.191 50.9287 100.415 51.2059C100.639 51.478 100.932 51.6833 101.295 51.822C101.663 51.9606 102.071 52.0299 102.519 52.0299C102.988 52.0299 103.401 51.958 103.758 51.8138C104.115 51.6701 104.395 51.4699 104.598 51.214C104.801 50.9582 104.902 50.6596 104.902 50.3182C104.902 50.0093 104.811 49.7561 104.63 49.5589C104.448 49.3561 104.198 49.1854 103.878 49.0468C103.558 48.9082 103.182 48.7854 102.75 48.6789L101.399 48.3272C100.418 48.0765 99.645 47.6953 99.0799 47.1837C98.5148 46.6664 98.232 45.9785 98.232 45.1203C98.232 44.4166 98.4211 43.8031 98.7997 43.2808C99.1783 42.753 99.6955 42.3425 100.351 42.0492C101.012 41.756 101.759 41.6094 102.59 41.6094C103.438 41.6094 104.182 41.756 104.822 42.0492C105.462 42.3425 105.962 42.7476 106.325 43.2649C106.688 43.7822 106.877 44.3764 106.893 45.048H104.806C104.753 44.5364 104.526 44.142 104.126 43.8647C103.731 43.582 103.212 43.4408 102.567 43.4408C102.119 43.4408 101.732 43.5075 101.407 43.6406C101.087 43.774 100.842 43.958 100.671 44.1924C100.501 44.4269 100.415 44.6938 100.415 44.9924C100.415 45.3227 100.514 45.5948 100.711 45.8078C100.914 46.0157 101.17 46.1839 101.479 46.3118C101.793 46.4397 102.113 46.5462 102.439 46.6318L103.55 46.9116C103.998 47.0181 104.43 47.1623 104.846 47.3432C105.262 47.5195 105.635 47.7432 105.965 48.0153C106.301 48.2818 106.565 48.607 106.757 48.9907C106.954 49.3749 107.053 49.8254 107.053 50.3426C107.053 51.0356 106.875 51.6487 106.517 52.1817C106.16 52.7097 105.645 53.1229 104.974 53.4215C104.302 53.7197 103.491 53.869 102.543 53.869Z" fill="#192432"></path><path d="M115.867 41.7695H118.018V49.5509C118.018 50.404 117.819 51.1556 117.419 51.8059C117.019 52.451 116.456 52.9576 115.731 53.3255C115.006 53.6882 114.158 53.8692 113.188 53.8692C112.218 53.8692 111.37 53.6882 110.645 53.3255C109.92 52.9576 109.355 52.451 108.949 51.8059C108.55 51.1556 108.35 50.404 108.35 49.5509V41.7695H110.509V49.3751C110.509 49.8761 110.618 50.3184 110.837 50.7026C111.056 51.0863 111.365 51.3901 111.765 51.6142C112.17 51.8328 112.644 51.9419 113.188 51.9419C113.732 51.9419 114.204 51.8328 114.604 51.6142C115.003 51.3901 115.313 51.0863 115.531 50.7026C115.755 50.3184 115.867 49.8761 115.867 49.3751V41.7695Z" fill="#192432"></path><path d="M119.754 53.6853V41.7695H121.913V51.8782H127.167V53.6853H119.754Z" fill="#192432"></path><path d="M126.367 43.577V41.7695H135.868V43.577H132.189V53.6853H130.054V43.577H126.367Z" fill="#192432"></path><path d="M139.235 41.7695V53.6853H137.076V41.7695H139.235Z" fill="#192432"></path><path d="M150.767 41.7695V53.6853H148.832L143.226 45.568H143.122V53.6853H140.963V41.7695H142.898L148.504 49.8867H148.608V41.7695H150.767Z" fill="#192432"></path><path d="M157.718 53.8451C156.624 53.8451 155.662 53.5974 154.831 53.1015C154.004 52.6057 153.359 51.902 152.895 50.9903C152.431 50.0786 152.199 48.9963 152.199 47.7432C152.199 46.4637 152.437 45.3655 152.911 44.4483C153.391 43.5315 154.041 42.8303 154.862 42.3451C155.683 41.8546 156.614 41.6094 157.653 41.6094C158.315 41.6094 158.928 41.7053 159.493 41.8973C160.063 42.0892 160.57 42.3638 161.012 42.721C161.455 43.0729 161.817 43.4913 162.1 43.9764C162.388 44.4615 162.58 44.995 162.676 45.576H160.476C160.381 45.2615 160.247 44.9787 160.076 44.7285C159.911 44.4778 159.709 44.2643 159.469 44.0885C159.234 43.9071 158.968 43.7715 158.669 43.6808C158.371 43.5901 158.04 43.5447 157.677 43.5447C157.043 43.5447 156.475 43.7073 155.974 44.0324C155.473 44.3524 155.078 44.8243 154.79 45.448C154.508 46.0667 154.366 46.8234 154.366 47.7193C154.366 48.6202 154.508 49.3826 154.79 50.0063C155.073 50.6301 155.468 51.1049 155.974 51.4301C156.481 51.7501 157.067 51.9097 157.733 51.9097C158.336 51.9097 158.858 51.7954 159.301 51.5661C159.744 51.3313 160.085 51.001 160.325 50.5745C160.565 50.1479 160.684 49.644 160.684 49.063L161.18 49.1426H157.941V47.4553H162.78V48.8791C162.78 49.9024 162.564 50.7849 162.132 51.5259C161.7 52.2669 161.1 52.8401 160.333 53.2453C159.57 53.6453 158.698 53.8451 157.718 53.8451Z" fill="#192432"></path><path d="M68.3076 53.8452C67.2625 53.8452 66.3269 53.6027 65.5004 53.1175C64.6794 52.6324 64.0317 51.9338 63.5573 51.0221C63.088 50.1105 62.8535 49.0148 62.8535 47.7353C62.8535 46.4506 63.0905 45.352 63.565 44.4403C64.045 43.5235 64.6952 42.8223 65.5166 42.3371C66.3427 41.852 67.2732 41.6094 68.3076 41.6094C68.963 41.6094 69.5765 41.7027 70.1468 41.8893C70.7226 42.0759 71.2343 42.3505 71.6822 42.713C72.1301 43.07 72.4954 43.5103 72.7778 44.0326C73.0657 44.5498 73.2552 45.1389 73.3459 45.7999H71.1705C71.1119 45.4375 70.9973 45.1175 70.8266 44.8403C70.6614 44.5631 70.4535 44.3286 70.2028 44.1366C69.9577 43.9393 69.6775 43.7926 69.363 43.6968C69.0486 43.5954 68.7098 43.5449 68.3474 43.5449C67.6971 43.5449 67.1213 43.7075 66.6199 44.0326C66.119 44.3526 65.7271 44.827 65.4443 45.4559C65.162 46.0797 65.0208 46.8394 65.0208 47.7353C65.0208 48.6418 65.162 49.4067 65.4443 50.0305C65.7322 50.6491 66.1241 51.118 66.6199 51.438C67.1213 51.7524 67.6942 51.9098 68.3393 51.9098C68.6965 51.9098 69.0298 51.8645 69.3391 51.7738C69.6484 51.678 69.9282 51.5368 70.1789 51.3502C70.4347 51.1582 70.6452 50.9289 70.8107 50.6623C70.981 50.3902 71.1012 50.0784 71.1705 49.7267H73.3459C73.2659 50.297 73.0897 50.833 72.818 51.334C72.5515 51.8298 72.1994 52.267 71.7622 52.6457C71.3305 53.0187 70.824 53.3122 70.2426 53.5252C69.6616 53.7387 69.0165 53.8452 68.3076 53.8452Z" fill="url(#paint0_linear_311_1210)"></path><path d="M79.9117 53.8452C78.8721 53.8452 77.9365 53.6027 77.1048 53.1175C76.2783 52.6324 75.625 51.9338 75.1455 51.0221C74.6706 50.1105 74.4336 49.0148 74.4336 47.7353C74.4336 46.4506 74.6706 45.352 75.1455 44.4403C75.625 43.5235 76.2783 42.8223 77.1048 42.3371C77.9365 41.852 78.8721 41.6094 79.9117 41.6094C80.9568 41.6094 81.8899 41.852 82.7108 42.3371C83.5318 42.8223 84.182 43.5235 84.662 44.4403C85.142 45.352 85.3816 46.4506 85.3816 47.7353C85.3816 49.0148 85.142 50.1105 84.662 51.0221C84.182 51.9338 83.5318 52.6324 82.7108 53.1175C81.8899 53.6027 80.9568 53.8452 79.9117 53.8452ZM79.9117 51.9098C80.5568 51.9098 81.1271 51.7498 81.6229 51.4298C82.1187 51.1103 82.508 50.6409 82.7908 50.0223C83.0732 49.3986 83.2143 48.6362 83.2143 47.7353C83.2143 46.8288 83.0732 46.0638 82.7908 45.4401C82.508 44.8163 82.1187 44.3445 81.6229 44.0245C81.1271 43.7045 80.5568 43.5449 79.9117 43.5449C79.2665 43.5449 78.6933 43.7045 78.1923 44.0245C77.6965 44.3445 77.3072 44.8163 77.0248 45.4401C76.742 46.0638 76.6009 46.8288 76.6009 47.7353C76.6009 48.6362 76.742 49.3986 77.0248 50.0223C77.3072 50.6409 77.6965 51.1103 78.1923 51.4298C78.6933 51.7498 79.2665 51.9098 79.9117 51.9098Z" fill="url(#paint1_linear_311_1210)"></path><path d="M96.6092 41.7695V53.6854H94.6738L89.0678 45.5682H88.9638V53.6854H86.8047V41.7695H88.7401L94.3461 49.8869H94.45V41.7695H96.6092Z" fill="url(#paint2_linear_311_1210)"></path><path d="M102.543 53.8692C101.615 53.8692 100.81 53.725 100.127 53.4375C99.4448 53.1496 98.9118 52.7308 98.528 52.1819C98.1439 51.6275 97.936 50.9554 97.9043 50.1665H100.031C100.063 50.5823 100.191 50.9289 100.415 51.2061C100.639 51.4782 100.932 51.6831 101.295 51.8217C101.663 51.9603 102.071 52.0296 102.519 52.0296C102.988 52.0296 103.401 51.9577 103.758 51.814C104.115 51.6698 104.395 51.47 104.598 51.2142C104.801 50.9584 104.902 50.6598 104.902 50.3184C104.902 50.0091 104.811 49.7558 104.63 49.5586C104.448 49.3562 104.198 49.1855 103.878 49.0469C103.558 48.9083 103.182 48.7855 102.75 48.679L101.399 48.3269C100.418 48.0767 99.645 47.6955 99.0795 47.1834C98.5143 46.6662 98.232 45.9787 98.232 45.1201C98.232 44.4163 98.4211 43.8033 98.7997 43.2809C99.1783 42.753 99.6955 42.3425 100.351 42.0492C101.012 41.756 101.759 41.6094 102.59 41.6094C103.438 41.6094 104.182 41.756 104.822 42.0492C105.462 42.3425 105.962 42.7476 106.325 43.2647C106.688 43.7819 106.877 44.3766 106.893 45.0482H104.806C104.752 44.5366 104.526 44.1417 104.126 43.8645C103.731 43.5821 103.212 43.4409 102.567 43.4409C102.119 43.4409 101.732 43.5073 101.407 43.6407C101.087 43.7738 100.842 43.9577 100.671 44.1926C100.501 44.427 100.415 44.6936 100.415 44.9922C100.415 45.3229 100.514 45.5945 100.711 45.808C100.914 46.0159 101.17 46.1836 101.479 46.312C101.793 46.4399 102.113 46.5464 102.439 46.6315L103.55 46.9117C103.998 47.0183 104.43 47.162 104.846 47.3434C105.262 47.5192 105.635 47.7434 105.965 48.0151C106.301 48.2816 106.565 48.6071 106.757 48.9909C106.954 49.3746 107.053 49.8251 107.053 50.3423C107.053 51.0354 106.875 51.6484 106.517 52.1819C106.16 52.7094 105.645 53.1227 104.974 53.4213C104.302 53.7199 103.491 53.8692 102.543 53.8692Z" fill="url(#paint3_linear_311_1210)"></path><path d="M115.867 41.7695H118.018V49.5507C118.018 50.4037 117.819 51.1558 117.419 51.8061C117.019 52.4512 116.456 52.9577 115.731 53.3256C115.006 53.688 114.158 53.8694 113.188 53.8694C112.218 53.8694 111.37 53.688 110.645 53.3256C109.92 52.9577 109.355 52.4512 108.949 51.8061C108.55 51.1558 108.35 50.4037 108.35 49.5507V41.7695H110.509V49.3748C110.509 49.8762 110.618 50.3186 110.837 50.7023C111.056 51.0865 111.365 51.3902 111.765 51.614C112.17 51.8326 112.644 51.9421 113.188 51.9421C113.732 51.9421 114.204 51.8326 114.604 51.614C115.003 51.3902 115.313 51.0865 115.531 50.7023C115.755 50.3186 115.867 49.8762 115.867 49.3748V41.7695Z" fill="url(#paint4_linear_311_1210)"></path><path d="M119.754 53.6854V41.7695H121.913V51.8779H127.167V53.6854H119.754Z" fill="url(#paint5_linear_311_1210)"></path><path d="M126.367 43.5768V41.7695H135.868V43.5768H132.189V53.6854H130.054V43.5768H126.367Z" fill="url(#paint6_linear_311_1210)"></path><path d="M139.235 41.7695V53.6854H137.076V41.7695H139.235Z" fill="url(#paint7_linear_311_1210)"></path><path d="M150.767 41.7695V53.6854H148.832L143.226 45.5682H143.122V53.6854H140.963V41.7695H142.898L148.504 49.8869H148.608V41.7695H150.767Z" fill="url(#paint8_linear_311_1210)"></path><path d="M157.718 53.8452C156.624 53.8452 155.662 53.5971 154.83 53.1013C154.004 52.6054 153.359 51.9017 152.895 50.99C152.431 50.0784 152.199 48.996 152.199 47.7434C152.199 46.4638 152.437 45.3652 152.911 44.4484C153.391 43.5312 154.041 42.8305 154.862 42.3451C155.683 41.8546 156.614 41.6094 157.653 41.6094C158.315 41.6094 158.928 41.7053 159.493 41.8973C160.063 42.0892 160.57 42.3638 161.012 42.721C161.455 43.073 161.817 43.4914 162.1 43.9766C162.388 44.4617 162.58 44.9947 162.676 45.5761H160.476C160.381 45.2613 160.247 44.9789 160.076 44.7282C159.911 44.4775 159.709 44.2645 159.469 44.0886C159.234 43.9073 158.968 43.7712 158.669 43.6805C158.37 43.5898 158.04 43.5449 157.677 43.5449C157.043 43.5449 156.475 43.7075 155.974 44.0326C155.473 44.3526 155.078 44.8245 154.79 45.4482C154.508 46.0664 154.366 46.8236 154.366 47.7194C154.366 48.6204 154.508 49.3828 154.79 50.0065C155.073 50.6303 155.468 51.1047 155.974 51.4298C156.481 51.7498 157.067 51.9098 157.733 51.9098C158.336 51.9098 158.858 51.7952 159.301 51.5659C159.744 51.3314 160.085 51.0007 160.325 50.5742C160.565 50.1477 160.684 49.6442 160.684 49.0628L161.18 49.1428H157.941V47.4555H162.78V48.8788C162.78 49.9025 162.564 50.7847 162.132 51.5261C161.7 52.267 161.1 52.8403 160.333 53.2454C159.57 53.6454 158.698 53.8452 157.718 53.8452Z" fill="url(#paint9_linear_311_1210)"></path><path d="M26.0966 70.7047C9.07531 67.7584 -2.33457 51.571 0.61191 34.5497C3.55839 17.5284 19.7455 6.11852 36.767 9.06505C43.7407 10.2722 49.7723 13.702 54.2609 18.501C54.4372 18.6895 54.4166 18.9866 54.2194 19.1526L49.5092 23.1117C49.3236 23.2678 49.0481 23.2504 48.8799 23.0756C45.4292 19.4877 40.8453 16.9277 35.564 16.0135C22.3802 13.7313 9.84258 22.5688 7.56036 35.7525C5.27818 48.9365 14.1157 61.4739 27.2994 63.7562C36.2699 65.3092 44.9411 61.7139 50.2861 55.1042C50.4393 54.9151 50.7135 54.8745 50.912 55.0153L55.9276 58.5785C56.1373 58.7278 56.1817 59.0212 56.0226 59.2236C49.1439 67.9547 37.8181 72.7338 26.0966 70.7047Z" fill="#192432"></path><path d="M42.7954 46.298C42.9922 46.298 43.1667 46.4242 43.2279 46.6107L46.0082 55.0787C44.2966 56.7331 42.3146 58.0892 40.1516 59.0843L38.3612 52.5127C38.3073 52.3147 38.1276 52.1773 37.9227 52.1773H26.8735C26.5674 52.1773 26.3486 51.8813 26.4386 51.5887L27.9676 46.6188C28.0265 46.428 28.2029 46.298 28.4026 46.298H42.7954ZM34.8497 21.9141C35.0457 21.9141 35.2194 22.0395 35.2814 22.2253L41.3806 40.5245C41.4786 40.8191 41.2596 41.1232 40.949 41.1232H35.3507C35.1535 41.1232 34.9785 40.9959 34.9178 40.8082L30.5922 27.438H30.0633L22.796 50.3925L20.5341 57.1818L20.3348 57.8796C18.4017 56.6881 16.6916 55.1989 15.2559 53.4864L25.3636 22.2291C25.4243 22.0413 25.5995 21.9141 25.7969 21.9141H34.8497Z" fill="#FFDF9F"></path><path d="M42.7954 46.298C42.9922 46.298 43.1667 46.4242 43.2279 46.6107L46.0082 55.0787C44.2966 56.7331 42.3146 58.0892 40.1516 59.0843L38.3612 52.5127C38.3073 52.3147 38.1276 52.1773 37.9227 52.1773H26.8735C26.5674 52.1773 26.3486 51.8813 26.4386 51.5887L27.9676 46.6188C28.0265 46.428 28.2029 46.298 28.4026 46.298H42.7954ZM34.8497 21.9141C35.0457 21.9141 35.2194 22.0395 35.2814 22.2253L41.3806 40.5245C41.4786 40.8191 41.2596 41.1232 40.949 41.1232H35.3507C35.1535 41.1232 34.9785 40.9959 34.9178 40.8082L30.5922 27.438H30.0633L22.796 50.3925L20.5341 57.1818L20.3348 57.8796C18.4017 56.6881 16.6916 55.1989 15.2559 53.4864L25.3636 22.2291C25.4243 22.0413 25.5995 21.9141 25.7969 21.9141H34.8497Z" fill="url(#paint10_linear_311_1210)"></path></g><defs><linearGradient id="paint0_linear_311_1210" x1="64.1384" y1="53.892" x2="72.4982" y2="36.756" gradientUnits="userSpaceOnUse"><stop offset="0.168269" stop-color="#8C8C8C"></stop><stop offset="1" stop-color="#F1F1F1"></stop></linearGradient><linearGradient id="paint1_linear_311_1210" x1="76.5005" y1="56.001" x2="83.8223" y2="38.0212" gradientUnits="userSpaceOnUse"><stop offset="0.168269" stop-color="#8C8C8C"></stop><stop offset="1" stop-color="#F1F1F1"></stop></linearGradient><linearGradient id="paint2_linear_311_1210" x1="88.6557" y1="55.7848" x2="97.0116" y2="39.0059" gradientUnits="userSpaceOnUse"><stop offset="0.168269" stop-color="#8C8C8C"></stop><stop offset="1" stop-color="#F1F1F1"></stop></linearGradient><linearGradient id="paint3_linear_311_1210" x1="99.6315" y1="56.0292" x2="107.933" y2="40.6448" gradientUnits="userSpaceOnUse"><stop offset="0.168269" stop-color="#8C8C8C"></stop><stop offset="1" stop-color="#F1F1F1"></stop></linearGradient><linearGradient id="paint4_linear_311_1210" x1="110.175" y1="56.0012" x2="118.448" y2="37.1968" gradientUnits="userSpaceOnUse"><stop offset="0.168269" stop-color="#8C8C8C"></stop><stop offset="1" stop-color="#F1F1F1"></stop></linearGradient><linearGradient id="paint5_linear_311_1210" x1="121.154" y1="55.7848" x2="129.96" y2="42.1781" gradientUnits="userSpaceOnUse"><stop offset="0.168269" stop-color="#8C8C8C"></stop><stop offset="1" stop-color="#F1F1F1"></stop></linearGradient><linearGradient id="paint6_linear_311_1210" x1="128.161" y1="55.7848" x2="135.93" y2="40.4017" gradientUnits="userSpaceOnUse"><stop offset="0.168269" stop-color="#8C8C8C"></stop><stop offset="1" stop-color="#F1F1F1"></stop></linearGradient><linearGradient id="paint7_linear_311_1210" x1="137.484" y1="55.7848" x2="144.709" y2="52.5338" gradientUnits="userSpaceOnUse"><stop offset="0.168269" stop-color="#8C8C8C"></stop><stop offset="1" stop-color="#F1F1F1"></stop></linearGradient><linearGradient id="paint8_linear_311_1210" x1="142.814" y1="55.7848" x2="150.437" y2="40.2086" gradientUnits="userSpaceOnUse"><stop offset="0.168269" stop-color="#8C8C8C"></stop><stop offset="1" stop-color="#F1F1F1"></stop></linearGradient><linearGradient id="paint9_linear_311_1210" x1="154.197" y1="56.001" x2="161.784" y2="39.7087" gradientUnits="userSpaceOnUse"><stop offset="0.168269" stop-color="#8C8C8C"></stop><stop offset="1" stop-color="#F1F1F1"></stop></linearGradient><linearGradient id="paint10_linear_311_1210" x1="19.0217" y1="59.2263" x2="48.2645" y2="2.88286" gradientUnits="userSpaceOnUse"><stop offset="0.168269" stop-color="#8C8C8C"></stop><stop offset="1" stop-color="#F1F1F1"></stop></linearGradient><clipPath id="clip0_311_1210"><rect width="163" height="80" fill="white"></rect></clipPath></defs></svg> 